<?xml version='1.0' encoding='iso-8859-1'?>
<!-- Uploaded to: SVG Repo, www.svgrepo.com, Generator: SVG Repo Mixer Tools -->
<svg fill="#000000" height="800px" width="800px" version="1.1" xmlns="http://www.w3.org/2000/svg" viewBox="0 0 297 297" xmlns:xlink="http://www.w3.org/1999/xlink" enable-background="new 0 0 297 297">
  <g>
    <path d="m148.5,0c-36.451,0.001-65.999,66-65.999,99.5 0,24.28 8.668,73.774 13.438,99.18 1.812,9.647 3.562,15.82 14.728,15.82h37.833 37.833c11.166,0 12.916-6.173 14.728-15.82 4.77-25.405 13.438-74.899 13.438-99.18 0-33.5-29.548-99.499-65.999-99.5z"/>
    <path d="m187.999,231.5h-79c-5.5,0-10.833,4-10.833,9.5v6.5c0,27.338 22.162,49.5 49.5,49.5 27.338,0 49.5-22.162 49.5-49.5v-6.5c0-5.5-3.667-9.5-9.167-9.5z"/>
  </g>
</svg>